PathFileType	4	(X/Y/Z)	TVC_16_BWA5_walk_RCNL2025.trc
DataRate	CameraRate	NumFrames	NumMarkers	Units	OrigDataRate	OrigDataStartFrame	OrigNumFrames
100	100	8	27	mm	100	1	671
Frame#	Time	R_Shoulder			L_Shoulder			C7			J_Notch			R_Elbow			L_Elbow			R_Wrist			L_Wrist			R_Asis			L_Asis			R_Psis			L_Psis			Sacral			Thoracic			Sternum			R_Thigh_Lateral			R_Knee_Lateral			R_Shank_Lateral			R_Ankle_Lateral			R_Heel			R_Toe			L_Thigh_Lateral			L_Knee_Lateral			L_Shank_Lateral			L_Ankle_Lateral			L_Heel			L_Toe		
		X1	Y1	Z1	X2	Y2	Z2	X3	Y3	Z3	X4	Y4	Z4	X5	Y5	Z5	X6	Y6	Z6	X7	Y7	Z7	X8	Y8	Z8	X9	Y9	Z9	X10	Y10	Z10	X11	Y11	Z11	X12	Y12	Z12	X13	Y13	Z13	X14	Y14	Z14	X15	Y15	Z15	X16	Y16	Z16	X17	Y17	Z17	X18	Y18	Z18	X19	Y19	Z19	X20	Y20	Z20	X21	Y21	Z21	X22	Y22	Z22	X23	Y23	Z23	X24	Y24	Z24	X25	Y25	Z25	X26	Y26	Z26	X27	Y27	Z27
1	0.00000000	-1213.559570	1292.557861	-57.993828	-1238.325562	1294.568115	-381.762634	-1282.200439	1349.519897	-207.426224	-1157.563599	1204.846436	-217.241226	-1328.713745	995.403015	9.596878	-1246.423584	974.765503	-465.721741	-1297.039856	767.515045	40.132553	-1143.770386	785.606140	-422.497787	-1243.497192	856.617859	-108.518089	-1298.010498	885.232605	-363.399567	-1426.486206	920.905701	-146.880051	-1445.115601	926.508789	-253.152023	-1435.800903	923.707245	-200.016037	-1388.156372	1100.923950	-208.341614	-1153.187988	1009.516968	-241.797897	-1258.172852	599.016052	-0.998641	-1183.926636	438.551239	-79.944557	-1184.580933	286.423218	-14.940148	-1189.380493	61.998383	-74.425903	-1239.603271	47.510612	-121.953514	-1067.758911	44.723808	-119.900444	-1335.151123	593.697083	-443.986420	-1318.216431	412.522919	-352.172943	-1399.065186	283.225372	-412.294922	-1501.331177	79.433159	-338.505798	-1548.497437	87.903694	-296.507935	-1378.836792	38.346611	-295.865326
2	0.01000000	-1207.725952	1293.374512	-55.791103	-1234.064087	1295.717163	-379.273102	-1277.091187	1350.534912	-204.699219	-1152.645386	1205.768799	-215.398346	-1321.954224	996.014282	12.226322	-1243.100586	976.049988	-463.171631	-1290.905212	767.960052	41.481788	-1141.081177	786.177063	-422.002838	-1238.482788	857.803772	-106.107193	-1293.078491	885.917419	-361.072632	-1421.354858	921.702698	-144.668365	-1440.150513	927.492859	-250.501434	-1430.752686	924.597778	-197.584900	-1383.051880	1101.848877	-205.511490	-1148.455688	1010.450195	-240.050522	-1254.326904	598.277039	0.640560	-1179.073608	438.362976	-79.826332	-1179.996460	286.544373	-15.275555	-1188.720581	61.977108	-74.413582	-1239.232788	47.855316	-121.756210	-1066.984741	44.215958	-120.083557	-1330.188354	594.381226	-442.650909	-1314.769287	413.178986	-351.968994	-1396.242798	284.388367	-411.859161	-1500.960693	81.503586	-338.736176	-1547.668335	90.425987	-296.440674	-1378.642334	38.301689	-296.022552
3	0.02000000	-1202.033936	1294.198608	-53.590405	-1229.818604	1296.830200	-376.808594	-1272.069824	1351.523193	-202.024063	-1147.772827	1206.702515	-213.509979	-1315.320190	996.620667	14.827572	-1239.725830	977.301514	-460.644501	-1284.782837	768.417053	42.878160	-1138.374939	786.737610	-421.295959	-1233.458130	858.889404	-103.710121	-1288.170654	886.605835	-358.763916	-1416.206177	922.467590	-142.419235	-1435.160400	928.411072	-247.857346	-1425.683289	925.439331	-195.138290	-1377.988647	1102.729126	-202.729065	-1143.700684	1011.401428	-238.218399	-1250.415649	597.731873	2.359967	-1174.499268	438.171967	-79.571251	-1175.937988	286.552795	-15.381923	-1188.113403	61.945400	-74.371353	-1238.893921	48.183392	-121.541862	-1066.290771	43.762871	-120.214592	-1325.341797	595.169922	-441.351349	-1311.119507	413.853851	-351.802765	-1393.492065	285.668823	-411.483704	-1500.391357	83.660301	-338.944946	-1546.642944	93.055099	-296.354187	-1378.413940	38.249760	-296.159637
4	0.03000000	-1196.483398	1295.029907	-51.391800	-1225.589233	1297.907104	-374.369171	-1267.136597	1352.484619	-199.400803	-1142.945801	1207.647583	-211.576248	-1308.811768	997.222107	17.400568	-1236.299561	978.519836	-458.140442	-1278.672913	768.886017	44.321695	-1135.651489	787.287628	-420.377350	-1228.423096	859.875549	-101.327148	-1283.286743	887.297852	-356.473358	-1411.040283	923.200256	-140.132904	-1430.145386	929.263306	-245.220047	-1420.592834	926.231781	-192.676476	-1372.966675	1103.564697	-199.994415	-1138.923340	1012.370422	-236.301666	-1246.435791	597.380188	4.157208	-1170.203125	437.978149	-79.179909	-1172.402588	286.449524	-15.260330	-1187.558838	61.903358	-74.299561	-1238.586426	48.494843	-121.310699	-1065.677002	43.364277	-120.294434	-1320.609253	596.062195	-440.087280	-1307.266602	414.547394	-351.673859	-1390.810059	287.066315	-411.167664	-1499.622925	85.903214	-339.132660	-1545.421021	95.790977	-296.248840	-1378.151733	38.190865	-296.276276
5	0.04000000	-1191.074463	1295.868286	-49.195488	-1221.375977	1298.947632	-371.955017	-1262.291382	1353.419312	-196.829575	-1138.164673	1208.603516	-209.597412	-1302.428955	997.818298	19.945137	-1232.822144	979.704346	-455.659668	-1272.575378	769.366730	45.812463	-1132.910522	787.826935	-419.247467	-1223.377075	860.764893	-98.959015	-1278.426270	887.993042	-354.200928	-1405.857910	923.900574	-137.810104	-1425.105591	930.049438	-242.590271	-1415.481750	926.975006	-190.200188	-1367.986084	1104.355347	-197.307755	-1134.124268	1013.356812	-234.300705	-1242.379761	597.219849	6.026053	-1166.182739	437.781372	-78.654060	-1169.380859	286.238312	-14.914963	-1187.056396	61.851269	-74.199158	-1238.310181	48.789692	-121.063362	-1065.142456	43.019405	-120.325333	-1315.983765	597.054504	-438.857330	-1303.209595	415.259003	-351.581024	-1388.187988	288.579803	-410.907379	-1498.654663	88.232025	-339.300781	-1544.001465	98.633347	-296.125732	-1377.855347	38.125057	-296.371918
6	0.05000000	-1185.807251	1296.713135	-47.001900	-1217.178955	1299.951294	-369.566498	-1257.534546	1354.326660	-194.310562	-1133.429810	1209.569580	-207.574081	-1296.171753	998.408630	22.460945	-1229.294678	980.853760	-453.202759	-1266.490356	769.858826	47.350590	-1130.150940	788.355133	-417.907257	-1218.318359	861.563538	-96.607170	-1273.588257	888.690674	-351.946564	-1400.659912	924.568054	-135.452377	-1420.041748	930.768982	-239.969574	-1410.350830	927.668518	-187.710976	-1363.047363	1105.100952	-194.669525	-1129.304565	1014.359497	-232.216431	-1238.237549	597.243774	7.954994	-1162.433472	437.581421	-77.997421	-1166.848633	285.927307	-14.356956	-1186.604980	61.789654	-74.072128	-1238.064331	49.068062	-120.801300	-1064.685425	42.726692	-120.311676	-1311.450317	598.139709	-437.659088	-1298.946411	415.987366	-351.521667	-1385.608521	290.206390	-410.695038	-1497.485229	90.645966	-339.452301	-1542.382812	101.581505	-295.987488	-1377.524048	38.052315	-296.445526
7	0.06000000	-1180.682007	1297.563232	-44.811802	-1212.997925	1300.917114	-367.204163	-1252.866455	1355.206177	-191.844162	-1128.742065	1210.544678	-205.507309	-1290.040039	998.992188	24.947447	-1225.718628	981.966003	-450.770447	-1260.417969	770.361664	48.936256	-1127.371277	788.871521	-416.358429	-1213.243896	862.281982	-94.273819	-1268.770874	889.389771	-349.710266	-1395.448364	925.202148	-133.062454	-1414.955200	931.421265	-237.360657	-1405.201782	928.311707	-185.211555	-1358.151001	1105.801147	-192.080566	-1124.466309	1015.376892	-230.050491	-1234.001709	597.436523	9.926713	-1158.947144	437.377838	-77.216377	-1164.759766	285.529846	-13.608822	-1186.202515	61.719349	-73.921783	-1237.847290	49.330170	-120.527107	-1064.302124	42.483566	-120.260361	-1306.982910	599.306213	-436.489380	-1294.474243	416.730255	-351.491150	-1383.041992	291.940613	-410.520325	-1496.112305	93.143364	-339.592010	-1540.562500	104.633957	-295.838867	-1377.156982	37.972481	-296.496094
8	0.07000000	-1175.699097	1298.417358	-42.626385	-1208.833252	1301.843750	-364.868958	-1248.287476	1356.057251	-189.430923	-1124.102539	1211.526978	-203.398773	-1284.033936	999.567444	27.403872	-1222.096069	983.038208	-448.363770	-1254.358521	770.874207	50.569668	-1124.569275	789.375122	-414.603531	-1208.149292	862.935791	-91.961769	-1263.971436	890.088379	-347.492157	-1390.226196	925.801758	-130.644470	-1409.847534	932.005493	-234.767517	-1400.036865	928.903625	-182.705994	-1353.298096	1106.455200	-189.542084	-1119.612549	1016.406433	-227.805588	-1229.674683	597.771851	11.918713	-1155.711182	437.169952	-76.320518	-1163.041870	285.063690	-12.707299	-1185.845825	61.641510	-73.752853	-1237.657349	49.576347	-120.244774	-1063.987305	42.286407	-120.180611	-1302.544922	600.538574	-435.345215	-1289.789795	417.484039	-351.482208	-1380.444580	293.773346	-410.373810	-1494.532593	95.721245	-339.726837	-1538.537842	107.787971	-295.687561	-1376.752808	37.885082	-296.522766
